<svg width="120" height="120" viewBox="0 0 120 120" fill="none" xmlns="http://www.w3.org/2000/svg">
<g clip-path="url(#clip0_489_39)">
<path d="M17.1426 90.3L65.1426 33.3333L120 70.3667V108.333C120 114.767 114.617 120 108 120H37.714C26.3654 120 17.1426 111.033 17.1426 100V90.3Z" fill="url(#paint0_radial_489_39)"/>
<path d="M17.1426 50.1334C17.1426 41.8334 24.034 35.1334 32.5711 35.1334H102.48L120 26.6667V68.3333C120 74.7667 114.617 80 108 80H37.714C26.3654 80 17.1426 88.9667 17.1426 100V50.1334Z" fill="url(#paint1_linear_489_39)"/>
<path d="M17.1426 50.1334C17.1426 41.8334 24.034 35.1334 32.5711 35.1334H102.48L120 26.6667V68.3333C120 74.7667 114.617 80 108 80H37.714C26.3654 80 17.1426 88.9667 17.1426 100V50.1334Z" fill="url(#paint2_radial_489_39)" fill-opacity="0.6"/>
<path d="M17.1426 50.1334C17.1426 41.8334 24.034 35.1334 32.5711 35.1334H102.48L120 26.6667V68.3333C120 74.7667 114.617 80 108 80H37.714C26.3654 80 17.1426 88.9667 17.1426 100V50.1334Z" fill="url(#paint3_radial_489_39)" fill-opacity="0.1"/>
<path d="M17.1426 20C17.1426 8.96667 26.3654 0 37.714 0H108C114.617 0 120 5.23333 120 11.6667V28.3333C120 34.7667 114.617 40 108 40H37.714C26.3654 40 17.1426 48.9667 17.1426 60V20Z" fill="url(#paint4_linear_489_39)"/>
<path d="M17.1426 20C17.1426 8.96667 26.3654 0 37.714 0H108C114.617 0 120 5.23333 120 11.6667V28.3333C120 34.7667 114.617 40 108 40H37.714C26.3654 40 17.1426 48.9667 17.1426 60V20Z" fill="url(#paint5_radial_489_39)" fill-opacity="0.8"/>
<path d="M43.7143 56.6667H11.1429C4.98883 56.6667 0 61.5169 0 67.5V99.1667C0 105.15 4.98883 110 11.1429 110H43.7143C49.8683 110 54.8571 105.15 54.8571 99.1667V67.5C54.8571 61.5169 49.8683 56.6667 43.7143 56.6667Z" fill="url(#paint6_radial_489_39)"/>
<path d="M43.7143 56.6667H11.1429C4.98883 56.6667 0 61.5169 0 67.5V99.1667C0 105.15 4.98883 110 11.1429 110H43.7143C49.8683 110 54.8571 105.15 54.8571 99.1667V67.5C54.8571 61.5169 49.8683 56.6667 43.7143 56.6667Z" fill="url(#paint7_radial_489_39)" fill-opacity="0.65"/>
<path d="M46.2521 68.1L39.4978 98.5666H31.4406L27.4635 80.3L23.2806 98.6H15.1206L8.64062 68.1333H15.2921L19.3035 88.2333L23.2806 68.1333H31.4406L35.5892 88.2333L39.4978 68.1333H46.2521V68.1Z" fill="white"/>
</g>
<defs>
<radialGradient id="paint0_radial_489_39" cx="0" cy="0" r="1" gradientUnits="userSpaceOnUse" gradientTransform="translate(123.822 119.213) scale(163.097 67.1667)">
<stop offset="0.18" stop-color="#1657F4"/>
<stop offset="0.57" stop-color="#0036C4"/>
</radialGradient>
<linearGradient id="paint1_linear_489_39" x1="17.1426" y1="63.3334" x2="95.8969" y2="63.3334" gradientUnits="userSpaceOnUse">
<stop stop-color="#66C0FF"/>
<stop offset="0.26" stop-color="#0094F0"/>
</linearGradient>
<radialGradient id="paint2_radial_489_39" cx="0" cy="0" r="1" gradientTransform="matrix(-69.3554 70.9311 179.711 166.092 111.444 46.9204)" gradientUnits="userSpaceOnUse">
<stop offset="0.14" stop-color="#D471FF"/>
<stop offset="0.83" stop-color="#509DF5" stop-opacity="0"/>
</radialGradient>
<radialGradient id="paint3_radial_489_39" cx="0" cy="0" r="1" gradientUnits="userSpaceOnUse" gradientTransform="translate(109.121 68.3294) rotate(90) scale(62.0667 348.514)">
<stop offset="0.28" stop-color="#4F006F" stop-opacity="0"/>
<stop offset="1" stop-color="#4F006F"/>
</radialGradient>
<linearGradient id="paint4_linear_489_39" x1="17.1426" y1="29.2667" x2="119.998" y2="31.0299" gradientUnits="userSpaceOnUse">
<stop stop-color="#9DEAFF"/>
<stop offset="0.2" stop-color="#3BD5FF"/>
</linearGradient>
<radialGradient id="paint5_radial_489_39" cx="0" cy="0" r="1" gradientTransform="matrix(-98.4573 22.3634 55.0995 229.292 116.603 -10.1761)" gradientUnits="userSpaceOnUse">
<stop offset="0.06" stop-color="#E4A7FE"/>
<stop offset="0.54" stop-color="#E4A7FE" stop-opacity="0"/>
</radialGradient>
<radialGradient id="paint6_radial_489_39" cx="0" cy="0" r="1" gradientTransform="matrix(54.8634 53.3394 54.8634 -53.3394 -0.602231 49.5699)" gradientUnits="userSpaceOnUse">
<stop offset="0.08" stop-color="#367AF2"/>
<stop offset="0.87" stop-color="#001A8F"/>
</radialGradient>
<radialGradient id="paint7_radial_489_39" cx="0" cy="0" r="1" gradientUnits="userSpaceOnUse" gradientTransform="translate(37.1479 88.5067) rotate(90) scale(37.3333 43.7829)">
<stop offset="0.59" stop-color="#2763E5" stop-opacity="0"/>
<stop offset="0.97" stop-color="#58AAFE"/>
</radialGradient>
<clipPath id="clip0_489_39">
<rect width="120" height="120" fill="white"/>
</clipPath>
</defs>
</svg>
